<svg width="36" height="36" viewBox="0 0 36 36" fill="none" xmlns="http://www.w3.org/2000/svg">
<rect width="36" height="36" rx="10" fill="#1F7F6C"/>
<path d="M7.87176 12.9961L17.1249 17.4642C17.3658 17.5791 17.6874 17.6391 18.0057 17.6391C18.3239 17.6391 18.6455 17.5791 18.886 17.4642L28.1391 12.9961C28.6257 12.7617 28.6257 12.3783 28.1391 12.143L18.886 7.67484C18.6455 7.56 18.3235 7.5 18.0057 7.5C17.6878 7.5 17.3658 7.56 17.1249 7.67484L7.87176 12.143C7.3852 12.3783 7.3852 12.7608 7.87176 12.9961Z" fill="#F9FAF7"/>
<path d="M28.1391 17.5735C28.1391 17.5735 26.4492 16.7588 26.2252 16.6492C26.0011 16.5395 25.9406 16.5456 25.7053 16.6548C25.47 16.764 18.8803 19.9468 18.8803 19.9468C18.6026 20.0668 18.3025 20.1265 18 20.1221C17.6827 20.1221 17.3602 20.0617 17.1197 19.9468C17.1197 19.9468 10.7049 16.8531 10.4039 16.704C10.0781 16.547 9.98439 16.547 9.68768 16.6876L7.85955 17.5679C7.37299 17.8023 7.37299 18.1862 7.85955 18.421L17.1141 22.8892C17.3546 23.004 17.6766 23.064 17.9944 23.064C18.3122 23.064 18.6342 23.004 18.8752 22.8892L28.1283 18.422C28.6256 18.1913 28.6256 17.8088 28.1391 17.5735Z" fill="#F9FAF7"/>
<path d="M28.1392 23.0037C28.1392 23.0037 26.4493 22.189 26.2253 22.0779C26.0012 21.9668 25.9407 21.9743 25.7054 22.0835C25.4701 22.1928 18.886 25.3826 18.886 25.3826C18.6082 25.5023 18.3082 25.5619 18.0057 25.5575C17.6884 25.5575 17.3659 25.4975 17.1249 25.3826C17.1249 25.3826 10.7101 22.2889 10.4096 22.1398C10.0815 21.9809 9.98775 21.9809 9.69291 22.1234L7.86479 23.0037C7.37775 23.2381 7.37775 23.6215 7.86479 23.8568L17.1179 28.325C17.3584 28.445 17.6804 28.4998 17.9982 28.4998C18.316 28.4998 18.6381 28.4398 18.8785 28.325L28.1335 23.8592C28.6257 23.6215 28.6257 23.239 28.1392 23.0037Z" fill="#F9FAF7"/>
</svg>
