<svg width="36" height="36" viewBox="0 0 36 36" fill="none" xmlns="http://www.w3.org/2000/svg">
<rect width="36" height="36" rx="10" fill="#1F7F6C"/>
<path d="M26.1599 18.7302C26.825 18.0661 27.3322 17.2609 27.6441 16.3743C27.956 15.4878 28.0646 14.5424 27.9619 13.6082C27.8591 12.674 27.5477 11.7748 27.0506 10.9772C26.5535 10.1796 25.8834 9.5039 25.0899 9.00017C23.0799 7.67017 20.3899 7.66017 18.3599 8.97017C16.5999 10.1002 15.6299 11.8602 15.4599 13.6802C15.3299 15.0002 14.8299 16.2302 13.9099 17.1502L13.8799 17.1802C12.7199 18.3402 12.7199 20.1102 13.8099 21.1902L14.7999 22.1802C15.3239 22.7037 16.0342 22.9979 16.7749 22.9979C17.5156 22.9979 18.226 22.7037 18.7499 22.1802C19.7199 21.2102 20.9999 20.6802 22.3899 20.5302C23.7599 20.3802 25.0999 19.7802 26.1599 18.7302ZM12.2599 25.8602C12.5299 26.4202 12.4399 27.1002 11.9699 27.5602C11.7664 27.7668 11.5069 27.9095 11.2234 27.9708C10.9399 28.0321 10.6447 28.0094 10.374 27.9053C10.1032 27.8013 9.86874 27.6205 9.69927 27.3851C9.5298 27.1497 9.43272 26.8699 9.41993 26.5802C9.13017 26.5674 8.85043 26.4703 8.61504 26.3008C8.37964 26.1314 8.19883 25.8969 8.09478 25.6261C7.99073 25.3554 7.96796 25.0602 8.02927 24.7767C8.09059 24.4932 8.23331 24.2337 8.43993 24.0302C8.89993 23.5702 9.58993 23.4702 10.1399 23.7402L12.6199 21.3102C12.7599 21.5002 12.9199 21.7202 13.0999 21.9002L14.0899 22.8902C14.2999 23.0902 14.4999 23.2602 14.7599 23.4102L12.2599 25.8602Z" fill="#F9FAF7"/>
</svg>
