<svg width="143" height="71" viewBox="0 0 143 71" fill="none" xmlns="http://www.w3.org/2000/svg">
<path d="M2.91333 68L10.7099 58.3569C11.5731 57.2892 12.0441 55.9577 12.0441 54.5846L12.0441 23.8826C12.0441 22.4276 12.5728 21.0222 13.5318 19.928L25.7891 5.94204C28.3405 3.03085 32.94 3.26175 35.1871 6.41381L48.0865 24.5088" stroke="#FFC265" stroke-width="5" stroke-linecap="round"/>
<path d="M2.91333 68L2.91333 23.6278C2.91333 22.2275 3.40306 20.8714 4.2977 19.7942L15.6783 6.0919C18.2184 3.03359 22.9766 3.24646 25.2334 6.51937L34.9016 20.5404C35.8051 21.8505 37.192 22.7481 38.7572 23.0356L48.0865 24.7491" stroke="#1F7F6C" stroke-width="5" stroke-linecap="round"/>
<path d="M27.3667 66L29.9267 50.8C30.1827 49.2854 30.5667 48.016 31.0787 46.992C31.612 45.968 32.2947 45.136 33.1267 44.496C33.98 43.856 34.9933 43.3974 36.1667 43.12C37.3613 42.8427 38.748 42.704 40.3267 42.704C41.18 42.704 42.0653 42.7574 42.9827 42.864C43.9213 42.9494 44.8173 43.088 45.6707 43.28L45.7347 43.664C45.6493 44.0694 45.5853 44.592 45.5427 45.232C45.5213 45.872 45.5107 46.5227 45.5107 47.184C45.5107 47.824 45.5107 48.3574 45.5107 48.784V66H40.9347V48.4C40.9347 47.8454 40.9453 47.344 40.9667 46.896C41.0093 46.4267 41.0733 46 41.1587 45.616L41.7987 46.8C41.5427 46.7147 41.212 46.6614 40.8067 46.64C40.4227 46.5974 40.0387 46.576 39.6547 46.576C38.4813 46.576 37.5427 46.736 36.8387 47.056C36.156 47.3547 35.6333 47.824 35.2707 48.464C34.908 49.104 34.6413 49.9147 34.4707 50.896L31.9747 66H27.3667ZM31.0787 59.632V55.856H42.9827V59.632H31.0787ZM50.9629 66V47.088C50.9629 46.6614 50.9523 46.1174 50.9309 45.456C50.9309 44.7734 50.9096 44.112 50.8669 43.472C50.8243 42.832 50.7496 42.32 50.6429 41.936L50.7389 41.68H55.4429V66H50.9629ZM68.7129 66V42.96H72.3929L84.5849 55.536V61.68L71.9769 48.656L73.2569 48.144V66H68.7129ZM82.8889 66V42.96H87.4329V66H82.8889ZM99.6852 66.384C97.0185 66.384 95.0025 65.9467 93.6372 65.072C92.2932 64.1974 91.6212 62.7787 91.6212 60.816C91.6212 59.5574 91.9305 58.5227 92.5492 57.712C93.1892 56.9014 94.0745 56.304 95.2052 55.92C96.3572 55.5147 97.6798 55.312 99.1732 55.312C100.091 55.312 100.891 55.3867 101.573 55.536C102.256 55.664 102.875 55.8027 103.429 55.952V58.832C103.003 58.6827 102.459 58.5547 101.797 58.448C101.136 58.32 100.496 58.256 99.8772 58.256C98.4905 58.256 97.4558 58.448 96.7732 58.832C96.1118 59.216 95.7812 59.8667 95.7812 60.784C95.7812 61.6587 96.1118 62.288 96.7732 62.672C97.4345 63.056 98.3838 63.248 99.6212 63.248C100.368 63.248 101.083 63.184 101.765 63.056C102.469 62.9067 103.088 62.6827 103.621 62.384L102.981 63.632C102.896 63.376 102.821 63.12 102.757 62.864C102.693 62.608 102.64 62.3414 102.597 62.064C102.576 61.7867 102.555 61.4774 102.533 61.136C102.533 60.7734 102.533 60.336 102.533 59.824V55.44C102.533 54.352 102.363 53.5307 102.021 52.976C101.68 52.4214 101.179 52.0587 100.517 51.888C99.8558 51.696 99.0345 51.6 98.0532 51.6C97.1572 51.6 96.2932 51.696 95.4612 51.888C94.6292 52.0587 93.9572 52.2614 93.4452 52.496H93.1252V48.944C93.8932 48.6667 94.7572 48.464 95.7172 48.336C96.6772 48.1867 97.6372 48.112 98.5972 48.112C99.7918 48.112 100.891 48.2187 101.893 48.432C102.917 48.6454 103.803 49.0187 104.549 49.552C105.296 50.0854 105.872 50.8427 106.277 51.824C106.704 52.784 106.917 54.032 106.917 55.568V59.6C106.917 60.048 106.917 60.6134 106.917 61.296C106.939 61.9574 106.971 62.608 107.013 63.248C107.056 63.888 107.12 64.4 107.205 64.784L107.109 65.04C106.384 65.3174 105.595 65.5627 104.741 65.776C103.909 65.968 103.056 66.1174 102.181 66.224C101.307 66.3307 100.475 66.384 99.6852 66.384ZM110.938 61.584H111.194C111.962 61.904 112.858 62.1814 113.882 62.416C114.928 62.6507 115.973 62.768 117.018 62.768C117.381 62.768 117.776 62.7574 118.202 62.736C118.629 62.6934 119.024 62.6187 119.386 62.512C119.77 62.4054 120.08 62.2134 120.314 61.936C120.57 61.6587 120.698 61.2854 120.698 60.816C120.698 60.2187 120.453 59.8027 119.962 59.568C119.472 59.3334 118.714 59.1307 117.69 58.96L116.186 58.704C114.48 58.4054 113.168 57.8934 112.25 57.168C111.333 56.4214 110.874 55.3227 110.874 53.872C110.874 52.8267 111.152 51.8774 111.706 51.024C112.282 50.1707 113.168 49.4987 114.362 49.008C115.578 48.496 117.168 48.24 119.13 48.24C120.048 48.24 120.89 48.304 121.658 48.432C122.448 48.5387 123.194 48.6987 123.898 48.912V52.592H123.642C122.832 52.272 122.053 52.048 121.306 51.92C120.56 51.792 119.792 51.728 119.002 51.728C117.808 51.728 116.869 51.8774 116.186 52.176C115.525 52.4534 115.194 52.9547 115.194 53.68C115.194 54.2347 115.44 54.6294 115.93 54.864C116.442 55.0987 117.178 55.3014 118.138 55.472L119.61 55.728C120.613 55.8774 121.52 56.144 122.33 56.528C123.162 56.912 123.824 57.4454 124.314 58.128C124.805 58.7894 125.05 59.6427 125.05 60.688C125.05 62.544 124.357 63.9414 122.97 64.88C121.605 65.7974 119.536 66.256 116.762 66.256C115.738 66.256 114.714 66.1707 113.69 66C112.666 65.8294 111.749 65.616 110.938 65.36V61.584ZM128.869 66V54.832C128.869 54.4054 128.859 53.8614 128.837 53.2C128.816 52.5174 128.784 51.856 128.741 51.216C128.72 50.5547 128.656 50.032 128.549 49.648L128.645 49.392C129.243 49.1787 129.936 48.9867 130.725 48.816C131.536 48.6454 132.379 48.5174 133.253 48.432C134.149 48.3254 135.045 48.272 135.941 48.272C136.325 48.272 136.741 48.2827 137.189 48.304C137.637 48.3254 138.085 48.368 138.533 48.432V52.08H138.245C137.925 51.9947 137.563 51.9414 137.157 51.92C136.752 51.8774 136.357 51.856 135.973 51.856C135.291 51.856 134.619 51.9094 133.957 52.016C133.296 52.1227 132.731 52.2507 132.261 52.4L132.933 51.376C133.211 51.952 133.349 52.944 133.349 54.352V66H128.869Z" fill="#1F7F6C"/>
</svg>
