<svg width="242" height="54" viewBox="0 0 242 54" fill="none" xmlns="http://www.w3.org/2000/svg">
<path d="M2.5 51L8.01384 44.1803C8.87712 43.1125 9.34806 41.781 9.34806 40.4079L9.34806 18.4762C9.34806 17.0212 9.87676 15.6158 10.8357 14.5216L18.4075 5.88196C20.9589 2.97077 25.5585 3.20166 27.8055 6.35373L36.3799 18.3816" stroke="#FFC265" stroke-width="5" stroke-linecap="round"/>
<path d="M2.5 51L2.5 18.2625C2.5 16.8623 2.98973 15.5061 3.88437 14.429L10.8088 6.09186C13.3489 3.03356 18.1071 3.24643 20.3639 6.51934L26.1385 14.8937C27.0419 16.2038 28.4288 17.1014 29.9941 17.3889L36.3799 18.5618" stroke="#1DA599" stroke-width="5" stroke-linecap="round"/>
<path d="M35.6599 44L38.2199 28.8C38.4759 27.2853 38.8599 26.016 39.3719 24.992C39.9052 23.968 40.5879 23.136 41.4199 22.496C42.2732 21.856 43.2866 21.3973 44.4599 21.12C45.6546 20.8427 47.0412 20.704 48.6199 20.704C49.4732 20.704 50.3585 20.7573 51.2759 20.864C52.2146 20.9493 53.1106 21.088 53.9639 21.28L54.0279 21.664C53.9426 22.0693 53.8786 22.592 53.8359 23.232C53.8146 23.872 53.8039 24.5227 53.8039 25.184C53.8039 25.824 53.8039 26.3573 53.8039 26.784V44H49.2279V26.4C49.2279 25.8453 49.2386 25.344 49.2599 24.896C49.3025 24.4267 49.3665 24 49.4519 23.616L50.0919 24.8C49.8359 24.7147 49.5052 24.6613 49.0999 24.64C48.7159 24.5973 48.3319 24.576 47.9479 24.576C46.7746 24.576 45.8359 24.736 45.1319 25.056C44.4492 25.3547 43.9265 25.824 43.5639 26.464C43.2012 27.104 42.9345 27.9147 42.7639 28.896L40.2679 44H35.6599ZM39.3719 37.632V33.856H51.2759V37.632H39.3719ZM59.2561 44V25.088C59.2561 24.6613 59.2455 24.1173 59.2241 23.456C59.2241 22.7733 59.2028 22.112 59.1601 21.472C59.1175 20.832 59.0428 20.32 58.9361 19.936L59.0321 19.68H63.7361V44H59.2561ZM77.0061 44V20.96H80.6861L92.8781 33.536V39.68L80.2701 26.656L81.5501 26.144V44H77.0061ZM91.1821 44V20.96H95.7261V44H91.1821ZM107.978 44.384C105.312 44.384 103.296 43.9467 101.93 43.072C100.586 42.1973 99.9144 40.7787 99.9144 38.816C99.9144 37.5573 100.224 36.5227 100.842 35.712C101.482 34.9013 102.368 34.304 103.498 33.92C104.65 33.5147 105.973 33.312 107.466 33.312C108.384 33.312 109.184 33.3867 109.866 33.536C110.549 33.664 111.168 33.8027 111.722 33.952V36.832C111.296 36.6827 110.752 36.5547 110.09 36.448C109.429 36.32 108.789 36.256 108.17 36.256C106.784 36.256 105.749 36.448 105.066 36.832C104.405 37.216 104.074 37.8667 104.074 38.784C104.074 39.6587 104.405 40.288 105.066 40.672C105.728 41.056 106.677 41.248 107.914 41.248C108.661 41.248 109.376 41.184 110.058 41.056C110.762 40.9067 111.381 40.6827 111.914 40.384L111.274 41.632C111.189 41.376 111.114 41.12 111.05 40.864C110.986 40.608 110.933 40.3413 110.89 40.064C110.869 39.7867 110.848 39.4773 110.826 39.136C110.826 38.7733 110.826 38.336 110.826 37.824V33.44C110.826 32.352 110.656 31.5307 110.314 30.976C109.973 30.4213 109.472 30.0587 108.81 29.888C108.149 29.696 107.328 29.6 106.346 29.6C105.45 29.6 104.586 29.696 103.754 29.888C102.922 30.0587 102.25 30.2613 101.738 30.496H101.418V26.944C102.186 26.6667 103.05 26.464 104.01 26.336C104.97 26.1867 105.93 26.112 106.89 26.112C108.085 26.112 109.184 26.2187 110.186 26.432C111.21 26.6453 112.096 27.0187 112.842 27.552C113.589 28.0853 114.165 28.8427 114.57 29.824C114.997 30.784 115.21 32.032 115.21 33.568V37.6C115.21 38.048 115.21 38.6133 115.21 39.296C115.232 39.9573 115.264 40.608 115.306 41.248C115.349 41.888 115.413 42.4 115.498 42.784L115.402 43.04C114.677 43.3173 113.888 43.5627 113.034 43.776C112.202 43.968 111.349 44.1173 110.474 44.224C109.6 44.3307 108.768 44.384 107.978 44.384ZM119.231 39.584H119.487C120.255 39.904 121.151 40.1813 122.175 40.416C123.221 40.6507 124.266 40.768 125.311 40.768C125.674 40.768 126.069 40.7573 126.495 40.736C126.922 40.6933 127.317 40.6187 127.679 40.512C128.063 40.4053 128.373 40.2133 128.607 39.936C128.863 39.6587 128.991 39.2853 128.991 38.816C128.991 38.2187 128.746 37.8027 128.255 37.568C127.765 37.3333 127.007 37.1307 125.983 36.96L124.479 36.704C122.773 36.4053 121.461 35.8933 120.543 35.168C119.626 34.4213 119.167 33.3227 119.167 31.872C119.167 30.8267 119.445 29.8773 119.999 29.024C120.575 28.1707 121.461 27.4987 122.655 27.008C123.871 26.496 125.461 26.24 127.423 26.24C128.341 26.24 129.183 26.304 129.951 26.432C130.741 26.5387 131.487 26.6987 132.191 26.912V30.592H131.935C131.125 30.272 130.346 30.048 129.599 29.92C128.853 29.792 128.085 29.728 127.295 29.728C126.101 29.728 125.162 29.8773 124.479 30.176C123.818 30.4533 123.487 30.9547 123.487 31.68C123.487 32.2347 123.733 32.6293 124.223 32.864C124.735 33.0987 125.471 33.3013 126.431 33.472L127.903 33.728C128.906 33.8773 129.813 34.144 130.623 34.528C131.455 34.912 132.117 35.4453 132.607 36.128C133.098 36.7893 133.343 37.6427 133.343 38.688C133.343 40.544 132.65 41.9413 131.263 42.88C129.898 43.7973 127.829 44.256 125.055 44.256C124.031 44.256 123.007 44.1707 121.983 44C120.959 43.8293 120.042 43.616 119.231 43.36V39.584ZM137.162 44V32.832C137.162 32.4053 137.152 31.8613 137.13 31.2C137.109 30.5173 137.077 29.856 137.034 29.216C137.013 28.5547 136.949 28.032 136.842 27.648L136.938 27.392C137.536 27.1787 138.229 26.9867 139.018 26.816C139.829 26.6453 140.672 26.5173 141.546 26.432C142.442 26.3253 143.338 26.272 144.234 26.272C144.618 26.272 145.034 26.2827 145.482 26.304C145.93 26.3253 146.378 26.368 146.826 26.432V30.08H146.538C146.218 29.9947 145.856 29.9413 145.45 29.92C145.045 29.8773 144.65 29.856 144.266 29.856C143.584 29.856 142.912 29.9093 142.25 30.016C141.589 30.1227 141.024 30.2507 140.554 30.4L141.226 29.376C141.504 29.952 141.642 30.944 141.642 32.352V44H137.162Z" fill="#1DA599"/>
<path d="M170.74 25.5L172.34 16C172.5 15.0533 172.74 14.26 173.06 13.62C173.393 12.98 173.82 12.46 174.34 12.06C174.873 11.66 175.507 11.3733 176.24 11.2C176.987 11.0267 177.853 10.94 178.84 10.94C179.373 10.94 179.927 10.9733 180.5 11.04C181.087 11.0933 181.647 11.18 182.18 11.3L182.22 11.54C182.167 11.7933 182.127 12.12 182.1 12.52C182.087 12.92 182.08 13.3267 182.08 13.74C182.08 14.14 182.08 14.4733 182.08 14.74V25.5H179.22V14.5C179.22 14.1533 179.227 13.84 179.24 13.56C179.267 13.2667 179.307 13 179.36 12.76L179.76 13.5C179.6 13.4467 179.393 13.4133 179.14 13.4C178.9 13.3733 178.66 13.36 178.42 13.36C177.687 13.36 177.1 13.46 176.66 13.66C176.233 13.8467 175.907 14.14 175.68 14.54C175.453 14.94 175.287 15.4467 175.18 16.06L173.62 25.5H170.74ZM173.06 21.52V19.16H180.5V21.52H173.06ZM185.488 25.5V13.68C185.488 13.4133 185.481 13.0733 185.468 12.66C185.468 12.2333 185.454 11.82 185.428 11.42C185.401 11.02 185.354 10.7 185.288 10.46L185.348 10.3H188.288V25.5H185.488ZM205.441 25.5V11.1H208.281V25.5H205.441ZM196.581 25.5V11.1H199.421V25.5H196.581ZM198.141 19.4V16.92H206.721V19.4H198.141ZM215.939 25.74C214.272 25.74 213.012 25.4667 212.159 24.92C211.319 24.3733 210.899 23.4867 210.899 22.26C210.899 21.4733 211.092 20.8267 211.479 20.32C211.879 19.8133 212.432 19.44 213.139 19.2C213.859 18.9467 214.686 18.82 215.619 18.82C216.192 18.82 216.692 18.8667 217.119 18.96C217.546 19.04 217.932 19.1267 218.279 19.22V21.02C218.012 20.9267 217.672 20.8467 217.259 20.78C216.846 20.7 216.446 20.66 216.059 20.66C215.192 20.66 214.546 20.78 214.119 21.02C213.706 21.26 213.499 21.6667 213.499 22.24C213.499 22.7867 213.706 23.18 214.119 23.42C214.532 23.66 215.126 23.78 215.899 23.78C216.366 23.78 216.812 23.74 217.239 23.66C217.679 23.5667 218.066 23.4267 218.399 23.24L217.999 24.02C217.946 23.86 217.899 23.7 217.859 23.54C217.819 23.38 217.786 23.2133 217.759 23.04C217.746 22.8667 217.732 22.6733 217.719 22.46C217.719 22.2333 217.719 21.96 217.719 21.64V18.9C217.719 18.22 217.612 17.7067 217.399 17.36C217.186 17.0133 216.872 16.7867 216.459 16.68C216.046 16.56 215.532 16.5 214.919 16.5C214.359 16.5 213.819 16.56 213.299 16.68C212.779 16.7867 212.359 16.9133 212.039 17.06H211.839V14.84C212.319 14.6667 212.859 14.54 213.459 14.46C214.059 14.3667 214.659 14.32 215.259 14.32C216.006 14.32 216.692 14.3867 217.319 14.52C217.959 14.6533 218.512 14.8867 218.979 15.22C219.446 15.5533 219.806 16.0267 220.059 16.64C220.326 17.24 220.459 18.02 220.459 18.98V21.5C220.459 21.78 220.459 22.1333 220.459 22.56C220.472 22.9733 220.492 23.38 220.519 23.78C220.546 24.18 220.586 24.5 220.639 24.74L220.579 24.9C220.126 25.0733 219.632 25.2267 219.099 25.36C218.579 25.48 218.046 25.5733 217.499 25.64C216.952 25.7067 216.432 25.74 215.939 25.74ZM225.051 12.86C224.598 12.86 224.218 12.7267 223.911 12.46C223.618 12.18 223.471 11.7933 223.471 11.3C223.471 10.82 223.618 10.4467 223.911 10.18C224.218 9.9 224.598 9.76 225.051 9.76C225.518 9.76 225.898 9.9 226.191 10.18C226.485 10.4467 226.631 10.82 226.631 11.3C226.631 11.7933 226.485 12.18 226.191 12.46C225.898 12.7267 225.518 12.86 225.051 12.86ZM222.051 30.3C221.665 30.3 221.325 30.2733 221.031 30.22C220.738 30.18 220.485 30.1267 220.271 30.06V27.78H220.471C220.645 27.8467 220.831 27.9 221.031 27.94C221.218 27.9933 221.458 28.02 221.751 28.02C222.351 28.02 222.818 27.86 223.151 27.54C223.498 27.22 223.671 26.7333 223.671 26.08V17.96C223.671 17.6933 223.665 17.3533 223.651 16.94C223.638 16.5267 223.618 16.12 223.591 15.72C223.578 15.3067 223.538 14.98 223.471 14.74L223.531 14.58H226.471V25.92C226.471 26.8133 226.298 27.5867 225.951 28.24C225.618 28.9067 225.118 29.4133 224.451 29.76C223.798 30.12 222.998 30.3 222.051 30.3ZM231.204 12.86C230.75 12.86 230.37 12.7267 230.064 12.46C229.77 12.18 229.624 11.7933 229.624 11.3C229.624 10.82 229.77 10.4467 230.064 10.18C230.37 9.9 230.75 9.76 231.204 9.76C231.67 9.76 232.05 9.9 232.344 10.18C232.637 10.4467 232.784 10.82 232.784 11.3C232.784 11.7933 232.637 12.18 232.344 12.46C232.05 12.7267 231.67 12.86 231.204 12.86ZM228.204 30.3C227.817 30.3 227.477 30.2733 227.184 30.22C226.89 30.18 226.637 30.1267 226.424 30.06V27.78H226.624C226.797 27.8467 226.984 27.9 227.184 27.94C227.37 27.9933 227.61 28.02 227.904 28.02C228.504 28.02 228.97 27.86 229.304 27.54C229.65 27.22 229.824 26.7333 229.824 26.08V17.96C229.824 17.6933 229.817 17.3533 229.804 16.94C229.79 16.5267 229.77 16.12 229.744 15.72C229.73 15.3067 229.69 14.98 229.624 14.74L229.684 14.58H232.624V25.92C232.624 26.8133 232.45 27.5867 232.104 28.24C231.77 28.9067 231.27 29.4133 230.604 29.76C229.95 30.12 229.15 30.3 228.204 30.3ZM171.5 34.1H174.36V42.88C174.36 44.0533 174.587 44.9133 175.04 45.46C175.493 46.0067 176.227 46.28 177.24 46.28C178.24 46.28 178.973 46.0067 179.44 45.46C179.907 44.9133 180.14 44.0533 180.14 42.88V34.1H183V42.78C183 44.74 182.52 46.2267 181.56 47.24C180.6 48.24 179.16 48.74 177.24 48.74C175.267 48.74 173.813 48.24 172.88 47.24C171.96 46.2267 171.5 44.74 171.5 42.78V34.1ZM186.367 48.5V41.68C186.367 41.4133 186.36 41.0733 186.347 40.66C186.333 40.2333 186.313 39.82 186.287 39.42C186.273 39.0067 186.233 38.68 186.167 38.44L186.227 38.28C186.627 38.1067 187.1 37.9533 187.647 37.82C188.193 37.6733 188.76 37.5533 189.347 37.46C189.947 37.3667 190.52 37.32 191.067 37.32C191.693 37.32 192.3 37.3933 192.887 37.54C193.487 37.6733 194.02 37.92 194.487 38.28C194.967 38.64 195.347 39.14 195.627 39.78C195.907 40.4067 196.047 41.2133 196.047 42.2V48.5H193.247V42.32C193.247 41.5867 193.14 41.0267 192.927 40.64C192.727 40.24 192.44 39.9667 192.067 39.82C191.707 39.66 191.287 39.58 190.807 39.58C190.407 39.58 190 39.6267 189.587 39.72C189.187 39.8133 188.833 39.92 188.527 40.04L188.947 39.34C189.013 39.54 189.067 39.8 189.107 40.12C189.147 40.44 189.167 40.8067 189.167 41.22V48.5H186.367ZM199.947 48.5V42.32C199.947 41.5867 199.847 41.0267 199.647 40.64C199.46 40.24 199.173 39.9667 198.787 39.82C198.413 39.66 197.96 39.58 197.427 39.58C197.093 39.58 196.753 39.62 196.407 39.7C196.073 39.7667 195.747 39.86 195.427 39.98L193.907 38.18C194.507 37.9267 195.14 37.72 195.807 37.56C196.487 37.4 197.16 37.32 197.827 37.32C198.467 37.32 199.08 37.3867 199.667 37.52C200.253 37.6533 200.78 37.9 201.247 38.26C201.713 38.6067 202.08 39.1 202.347 39.74C202.613 40.3667 202.747 41.1867 202.747 42.2V48.5H199.947ZM206.074 48.5V41.52C206.074 41.2533 206.067 40.9133 206.054 40.5C206.04 40.0733 206.02 39.66 205.994 39.26C205.98 38.8467 205.94 38.52 205.874 38.28L205.934 38.12C206.307 37.9867 206.74 37.8667 207.234 37.76C207.74 37.6533 208.267 37.5733 208.814 37.52C209.374 37.4533 209.934 37.42 210.494 37.42C210.734 37.42 210.994 37.4267 211.274 37.44C211.554 37.4533 211.834 37.48 212.114 37.52V39.8H211.934C211.734 39.7467 211.507 39.7133 211.254 39.7C211 39.6733 210.754 39.66 210.514 39.66C210.087 39.66 209.667 39.6933 209.254 39.76C208.84 39.8267 208.487 39.9067 208.194 40L208.614 39.36C208.787 39.72 208.874 40.34 208.874 41.22V48.5H206.074ZM218.263 48.74C216.597 48.74 215.337 48.4667 214.483 47.92C213.643 47.3733 213.223 46.4867 213.223 45.26C213.223 44.4733 213.417 43.8267 213.803 43.32C214.203 42.8133 214.757 42.44 215.463 42.2C216.183 41.9467 217.01 41.82 217.943 41.82C218.517 41.82 219.017 41.8667 219.443 41.96C219.87 42.04 220.257 42.1267 220.603 42.22V44.02C220.337 43.9267 219.997 43.8467 219.583 43.78C219.17 43.7 218.77 43.66 218.383 43.66C217.517 43.66 216.87 43.78 216.443 44.02C216.03 44.26 215.823 44.6667 215.823 45.24C215.823 45.7867 216.03 46.18 216.443 46.42C216.857 46.66 217.45 46.78 218.223 46.78C218.69 46.78 219.137 46.74 219.563 46.66C220.003 46.5667 220.39 46.4267 220.723 46.24L220.323 47.02C220.27 46.86 220.223 46.7 220.183 46.54C220.143 46.38 220.11 46.2133 220.083 46.04C220.07 45.8667 220.057 45.6733 220.043 45.46C220.043 45.2333 220.043 44.96 220.043 44.64V41.9C220.043 41.22 219.937 40.7067 219.723 40.36C219.51 40.0133 219.197 39.7867 218.783 39.68C218.37 39.56 217.857 39.5 217.243 39.5C216.683 39.5 216.143 39.56 215.623 39.68C215.103 39.7867 214.683 39.9133 214.363 40.06H214.163V37.84C214.643 37.6667 215.183 37.54 215.783 37.46C216.383 37.3667 216.983 37.32 217.583 37.32C218.33 37.32 219.017 37.3867 219.643 37.52C220.283 37.6533 220.837 37.8867 221.303 38.22C221.77 38.5533 222.13 39.0267 222.383 39.64C222.65 40.24 222.783 41.02 222.783 41.98V44.5C222.783 44.78 222.783 45.1333 222.783 45.56C222.797 45.9733 222.817 46.38 222.843 46.78C222.87 47.18 222.91 47.5 222.963 47.74L222.903 47.9C222.45 48.0733 221.957 48.2267 221.423 48.36C220.903 48.48 220.37 48.5733 219.823 48.64C219.277 48.7067 218.757 48.74 218.263 48.74ZM225.995 48.5V36.68C225.995 36.4133 225.989 36.0733 225.975 35.66C225.962 35.2333 225.942 34.82 225.915 34.42C225.902 34.02 225.862 33.7 225.795 33.46L225.855 33.3H228.795V38.9L228.195 37.98C228.609 37.7933 229.055 37.64 229.535 37.52C230.029 37.3867 230.595 37.32 231.235 37.32C231.889 37.32 232.495 37.4067 233.055 37.58C233.629 37.74 234.122 38.0133 234.535 38.4C234.962 38.7733 235.295 39.2733 235.535 39.9C235.775 40.5133 235.895 41.28 235.895 42.2V48.5H233.095V42.34C233.095 41.6333 232.989 41.0867 232.775 40.7C232.562 40.3 232.262 40.0267 231.875 39.88C231.502 39.72 231.062 39.64 230.555 39.64C230.275 39.64 229.982 39.6667 229.675 39.72C229.382 39.7733 229.102 39.8333 228.835 39.9C228.582 39.9667 228.382 40.0267 228.235 40.08L228.795 38.82V48.5H225.995Z" fill="#1DA599"/>
</svg>
